<svg xmlns="http://www.w3.org/2000/svg" width="48" height="48" viewBox="0 0 24 24" fill="none" stroke="#ec4899" stroke-width="1.4" stroke-linecap="round" stroke-linejoin="round">
  <path d="M1.5 5a1 1 0 0 1 1-1h4.25a.5.5 0 0 0 .5-.5 2.75 2.75 0 0 1 5.5 0 .5.5 0 0 0 .5.5h4.25a1 1 0 0 1 1 1v4.25a.5.5 0 0 0 .5.5 2.75 2.75 0 0 1 0 5.5.5.5 0 0 0-.5.5V19a1 1 0 0 1-1 1h-4.25a.5.5 0 0 1-.5-.5 2.75 2.75 0 0 0-5.5 0 .5.5 0 0 1-.5.5H2.5a1 1 0 0 1-1-1v-4.25a.5.5 0 0 1 .5-.5 2.75 2.75 0 0 0 0-5.5.5.5 0 0 1-.5-.5Z"/>
  <path d="M10.5 10.25a1.5 1.5 0 1 1 2.4 1.2c-.45.34-.9.7-.9 1.2v.35" stroke-width="1.5"/>
  <circle cx="12" cy="14.6" r="0.08" stroke-width="2"/>
</svg>
