<svg viewBox="0 0 100 100" xmlns="http://www.w3.org/2000/svg">
  <defs>
    <linearGradient id="bggrad" x1="0" x2="0" y1="0" y2="1">
      <stop offset="0" stop-color="#1e1e2e"/>
      <stop offset="0.5" stop-color="#2d2b55"/>
      <stop offset="1" stop-color="#1a1a2e"/>
    </linearGradient>
    <linearGradient id="rgrad" x1="0" x2="0" y1="0" y2="1">
      <stop offset="0" stop-color="#c4b5fd"/>
      <stop offset="1" stop-color="#a78bfa"/>
    </linearGradient>
    <linearGradient id="fgrad" x1="0" x2="0" y1="0" y2="1">
      <stop offset="0" stop-color="#fbbf24"/>
      <stop offset="1" stop-color="#fb923c"/>
    </linearGradient>
  </defs>
  <rect width="100" height="100" rx="22.37" fill="url(#bggrad)"/>
  <circle cx="14" cy="18" r="0.7" fill="#ffffff" opacity="0.85"/>
  <circle cx="84" cy="14" r="0.6" fill="#ffffff" opacity="0.7"/>
  <circle cx="88" cy="34" r="0.9" fill="#fbbf24" opacity="0.95"/>
  <circle cx="12" cy="44" r="0.55" fill="#ffffff" opacity="0.6"/>
  <circle cx="92" cy="62" r="0.55" fill="#c4b5fd" opacity="0.85"/>
  <circle cx="18" cy="68" r="0.5" fill="#ffffff" opacity="0.55"/>
  <g transform="translate(82 24)">
    <path d="M0 -3 L0 3 M-3 0 L3 0" stroke="#fbbf24" stroke-width="0.7" stroke-linecap="round" opacity="0.95"/>
  </g>
  <g transform="translate(20 30)">
    <path d="M0 -2 L0 2 M-2 0 L2 0" stroke="#ffffff" stroke-width="0.7" stroke-linecap="round" opacity="0.7"/>
  </g>
  <text x="48.65" y="91.64" font-size="13" fill="#c4b5fd" font-family="Fredoka, sans-serif" font-weight="700" opacity="0.9">é</text>
  <text x="53.79" y="79.95" font-size="14" fill="#fbbf24" font-family="Fredoka, sans-serif" font-weight="700" opacity="0.95">a</text>
  <text x="65.15" y="93.65" font-size="15" fill="#ffffff" font-family="Fredoka, sans-serif" font-weight="700" opacity="0.95">b</text>
  <text x="66.19" y="75.94" font-size="13" fill="#fbbf24" font-family="Fredoka, sans-serif" font-weight="700" opacity="0.9">c</text>
  <text x="76.93" y="84.36" font-size="12" fill="#a78bfa" font-family="Fredoka, sans-serif" font-weight="700" opacity="0.9">d</text>
  <g transform="translate(-0.23 -7.76) rotate(-20 50 50)">
    <path d="M50 12 Q70 30 70 65 L30 65 Q30 30 50 12 Z" fill="#ffffff"/>
    <path d="M50 12 Q70 30 70 65 L60 65 Q60 30 50 12 Z" fill="url(#rgrad)" opacity="0.25"/>
    <circle cx="50" cy="40" r="9" fill="url(#rgrad)"/>
    <circle cx="50" cy="40" r="5" fill="#1e1e2e"/>
    <path d="M30 65 L20 84 L38 70 Z" fill="#a78bfa"/>
    <path d="M70 65 L80 84 L62 70 Z" fill="#a78bfa"/>
  </g>
  <g transform="translate(-4.65 -5.54) rotate(-20 50 50)">
    <path d="M40 68 Q44 88 48 68 Z" fill="url(#fgrad)"/>
  </g>
  <g transform="translate(-4.92 -5.42) rotate(-20 50 50)">
    <path d="M48 68 Q51 84 55 68 Z" fill="url(#fgrad)"/>
    <path d="M55 68 Q58 84 62 68 Z" fill="url(#fgrad)"/>
  </g>
  <g transform="translate(-4.91 -5.4) rotate(-20 50 50)">
    <path d="M62 68 Q66 88 70 68 Z" fill="url(#fgrad)"/>
  </g>
</svg>
